<svg xmlns="http://www.w3.org/2000/svg" xmlns:xlink="http://www.w3.org/1999/xlink" width="1100" zoomAndPan="magnify" viewBox="0 0 824.88 225" height="300" preserveAspectRatio="xMidYMid meet" version="1.0"><defs><g/><clipPath id="251bfe5758"><rect x="0" width="534" y="0" height="187"/></clipPath><clipPath id="cb00ed58eb"><path d="M 0 0.015625 L 226 0.015625 L 226 224.984375 L 0 224.984375 Z M 0 0.015625 " clip-rule="nonzero"/></clipPath><clipPath id="224bc1fee7"><path d="M 0 0.015625 L 224.96875 0.015625 L 224.96875 224.984375 L 0 224.984375 Z M 0 0.015625 " clip-rule="nonzero"/></clipPath><clipPath id="13f70b3f9a"><path d="M 31.496094 0.015625 L 193.472656 0.015625 C 201.824219 0.015625 209.835938 3.335938 215.742188 9.242188 C 221.648438 15.148438 224.96875 23.160156 224.96875 31.511719 L 224.96875 193.488281 C 224.96875 201.839844 221.648438 209.851562 215.742188 215.757812 C 209.835938 221.664062 201.824219 224.984375 193.472656 224.984375 L 31.496094 224.984375 C 23.140625 224.984375 15.132812 221.664062 9.226562 215.757812 C 3.316406 209.851562 0 201.839844 0 193.488281 L 0 31.511719 C 0 23.160156 3.316406 15.148438 9.226562 9.242188 C 15.132812 3.335938 23.140625 0.015625 31.496094 0.015625 Z M 31.496094 0.015625 " clip-rule="nonzero"/></clipPath><clipPath id="21ea60bc3f"><path d="M 0 0.015625 L 224.96875 0.015625 L 224.96875 224.984375 L 0 224.984375 Z M 0 0.015625 " clip-rule="nonzero"/></clipPath><clipPath id="2e689bcc28"><path d="M 31.496094 0.015625 L 193.472656 0.015625 C 201.824219 0.015625 209.835938 3.335938 215.742188 9.242188 C 221.648438 15.148438 224.96875 23.160156 224.96875 31.511719 L 224.96875 193.488281 C 224.96875 201.839844 221.648438 209.851562 215.742188 215.757812 C 209.835938 221.664062 201.824219 224.984375 193.472656 224.984375 L 31.496094 224.984375 C 23.140625 224.984375 15.132812 221.664062 9.226562 215.757812 C 3.316406 209.851562 0 201.839844 0 193.488281 L 0 31.511719 C 0 23.160156 3.316406 15.148438 9.226562 9.242188 C 15.132812 3.335938 23.140625 0.015625 31.496094 0.015625 Z M 31.496094 0.015625 " clip-rule="nonzero"/></clipPath><clipPath id="1ae820f38f"><rect x="0" width="225" y="0" height="225"/></clipPath><clipPath id="67bf561d0b"><path d="M 42.007812 119 L 159 119 L 159 182.101562 L 42.007812 182.101562 Z M 42.007812 119 " clip-rule="nonzero"/></clipPath><clipPath id="893cf04ea3"><path d="M 42.007812 74.3125 L 42.007812 150.6875 C 42.007812 168.082031 56.105469 182.183594 73.5 182.183594 L 151.464844 182.183594 C 159.820312 182.183594 167.828125 178.867188 173.738281 172.960938 C 179.644531 167.054688 182.960938 159.042969 182.960938 150.6875 L 182.960938 74.3125 C 182.960938 65.957031 179.644531 57.945312 173.738281 52.039062 C 167.828125 46.132812 159.820312 42.816406 151.464844 42.816406 L 73.5 42.816406 C 56.105469 42.816406 42.007812 56.917969 42.007812 74.3125 Z M 42.007812 74.3125 " clip-rule="nonzero"/></clipPath><clipPath id="e5bce04ab6"><path d="M 42.007812 93 L 177 93 L 177 162 L 42.007812 162 Z M 42.007812 93 " clip-rule="nonzero"/></clipPath><clipPath id="d7ef0d651e"><path d="M 42.007812 74.3125 L 42.007812 150.6875 C 42.007812 168.082031 56.105469 182.183594 73.5 182.183594 L 151.464844 182.183594 C 159.820312 182.183594 167.828125 178.867188 173.738281 172.960938 C 179.644531 167.054688 182.960938 159.042969 182.960938 150.6875 L 182.960938 74.3125 C 182.960938 65.957031 179.644531 57.945312 173.738281 52.039062 C 167.828125 46.132812 159.820312 42.816406 151.464844 42.816406 L 73.5 42.816406 C 56.105469 42.816406 42.007812 56.917969 42.007812 74.3125 Z M 42.007812 74.3125 " clip-rule="nonzero"/></clipPath><clipPath id="cb34ff1287"><path d="M 47 42.816406 L 140 42.816406 L 140 120 L 47 120 Z M 47 42.816406 " clip-rule="nonzero"/></clipPath><clipPath id="1c1b46758b"><path d="M 42.007812 74.3125 L 42.007812 150.6875 C 42.007812 168.082031 56.105469 182.183594 73.5 182.183594 L 151.464844 182.183594 C 159.820312 182.183594 167.828125 178.867188 173.738281 172.960938 C 179.644531 167.054688 182.960938 159.042969 182.960938 150.6875 L 182.960938 74.3125 C 182.960938 65.957031 179.644531 57.945312 173.738281 52.039062 C 167.828125 46.132812 159.820312 42.816406 151.464844 42.816406 L 73.5 42.816406 C 56.105469 42.816406 42.007812 56.917969 42.007812 74.3125 Z M 42.007812 74.3125 " clip-rule="nonzero"/></clipPath><clipPath id="9a39817067"><rect x="0" width="226" y="0" height="225"/></clipPath></defs><g transform="matrix(1, 0, 0, 1, 274, 16)"><g clip-path="url(#251bfe5758)"><g fill="#272517" fill-opacity="1"><g transform="translate(1.157433, 147.806126)"><g><path d="M 46.234375 2.328125 C 37.722656 2.328125 30.328125 0.539062 24.046875 -3.03125 C 17.773438 -6.613281 12.898438 -11.363281 9.421875 -17.28125 C 5.941406 -23.195312 4.203125 -29.628906 4.203125 -36.578125 C 4.203125 -44.160156 6.117188 -50.851562 9.953125 -56.65625 C 13.796875 -62.46875 18.910156 -67.007812 25.296875 -70.28125 C 31.679688 -73.550781 38.609375 -75.1875 46.078125 -75.1875 C 56.035156 -75.1875 64.492188 -72.800781 71.453125 -68.03125 L 63.359375 -54.953125 C 61.703125 -56.296875 59.394531 -57.460938 56.4375 -58.453125 C 53.476562 -59.441406 50.335938 -59.9375 47.015625 -59.9375 C 42.648438 -59.9375 38.675781 -58.945312 35.09375 -56.96875 C 31.519531 -55 28.664062 -52.273438 26.53125 -48.796875 C 24.40625 -45.328125 23.34375 -41.304688 23.34375 -36.734375 C 23.34375 -32.273438 24.378906 -28.226562 26.453125 -24.59375 C 28.535156 -20.957031 31.390625 -18.101562 35.015625 -16.03125 C 38.648438 -13.957031 42.753906 -12.921875 47.328125 -12.921875 C 50.648438 -12.921875 53.941406 -13.460938 57.203125 -14.546875 C 60.472656 -15.640625 63.25 -16.96875 65.53125 -18.53125 L 72.390625 -5.453125 C 65.429688 -0.265625 56.710938 2.328125 46.234375 2.328125 Z M 46.234375 2.328125 "/></g></g></g><g fill="#272517" fill-opacity="1"><g transform="translate(76.811181, 147.806126)"><g><path d="M 75.8125 -64.453125 C 79.03125 -61.023438 81.234375 -57 82.421875 -52.375 C 83.617188 -47.757812 84.21875 -42.859375 84.21875 -37.671875 L 84.21875 0 L 65.375 1.5625 L 65.375 -32.6875 C 65.375 -36.320312 65.140625 -39.800781 64.671875 -43.125 C 64.210938 -46.445312 63.046875 -49.351562 61.171875 -51.84375 C 59.515625 -54.125 57.570312 -55.859375 55.34375 -57.046875 C 53.113281 -58.242188 50.335938 -58.84375 47.015625 -58.84375 C 43.484375 -58.84375 40.289062 -57.78125 37.4375 -55.65625 C 34.582031 -53.53125 32.320312 -50.648438 30.65625 -47.015625 C 29 -43.378906 28.171875 -39.226562 28.171875 -34.5625 L 28.171875 0 L 9.34375 1.5625 L 9.34375 -110.53125 L 27.546875 -112.078125 L 27.546875 -62.109375 C 30.554688 -66.367188 34.210938 -69.535156 38.515625 -71.609375 C 42.828125 -73.679688 47.476562 -74.71875 52.46875 -74.71875 C 57.65625 -74.71875 62.191406 -73.734375 66.078125 -71.765625 C 69.972656 -69.796875 73.21875 -67.359375 75.8125 -64.453125 Z M 75.8125 -64.453125 "/></g></g></g><g fill="#272517" fill-opacity="1"><g transform="translate(169.276866, 147.806126)"><g><path d="M 68.34375 -72.859375 L 86.09375 -74.40625 L 86.09375 0 L 68.34375 1.5625 L 68.34375 -9.5 C 65.4375 -5.96875 61.722656 -3.1875 57.203125 -1.15625 C 52.691406 0.863281 47.582031 1.875 41.875 1.875 C 37.207031 1.875 32.640625 0.992188 28.171875 -0.765625 C 23.710938 -2.535156 19.664062 -5.082031 16.03125 -8.40625 C 12.394531 -11.726562 9.515625 -15.773438 7.390625 -20.546875 C 5.265625 -25.316406 4.203125 -30.660156 4.203125 -36.578125 C 4.203125 -42.492188 5.316406 -47.8125 7.546875 -52.53125 C 9.773438 -57.257812 12.734375 -61.253906 16.421875 -64.515625 C 20.109375 -67.785156 24.15625 -70.300781 28.5625 -72.0625 C 32.976562 -73.832031 37.3125 -74.71875 41.5625 -74.71875 C 47.375 -74.71875 52.5625 -73.65625 57.125 -71.53125 C 61.695312 -69.40625 65.4375 -66.578125 68.34375 -63.046875 Z M 45.609375 -13.078125 C 49.660156 -13.078125 53.34375 -14.085938 56.65625 -16.109375 C 59.976562 -18.128906 62.625 -20.90625 64.59375 -24.4375 C 66.570312 -27.96875 67.5625 -32.066406 67.5625 -36.734375 C 67.5625 -41.304688 66.570312 -45.351562 64.59375 -48.875 C 62.625 -52.40625 59.976562 -55.207031 56.65625 -57.28125 C 53.34375 -59.363281 49.609375 -60.40625 45.453125 -60.40625 C 41.410156 -60.40625 37.675781 -59.390625 34.25 -57.359375 C 30.820312 -55.335938 28.097656 -52.535156 26.078125 -48.953125 C 24.054688 -45.378906 23.046875 -41.304688 23.046875 -36.734375 C 23.046875 -32.171875 24.082031 -28.097656 26.15625 -24.515625 C 28.226562 -20.929688 30.976562 -18.128906 34.40625 -16.109375 C 37.832031 -14.085938 41.566406 -13.078125 45.609375 -13.078125 Z M 45.609375 -13.078125 "/></g></g></g><g fill="#272517" fill-opacity="1"><g transform="translate(263.766215, 147.806126)"><g><path d="M 52.3125 -17.28125 L 57.4375 -2.953125 C 55.15625 -1.609375 52.664062 -0.570312 49.96875 0.15625 C 47.269531 0.882812 44.101562 1.25 40.46875 1.25 C 34.039062 1.25 28.984375 -0.0703125 25.296875 -2.71875 C 21.609375 -5.363281 19.007812 -8.734375 17.5 -12.828125 C 16 -16.929688 15.25 -21.21875 15.25 -25.6875 L 15.25 -57.4375 L 2.953125 -57.4375 L 4.515625 -72.859375 L 15.25 -72.859375 L 15.25 -92.625 L 34.09375 -95.578125 L 34.09375 -72.859375 L 55.265625 -72.859375 L 53.703125 -57.4375 L 34.09375 -57.4375 L 34.09375 -28.015625 C 34.09375 -23.140625 35.128906 -19.710938 37.203125 -17.734375 C 39.273438 -15.765625 41.609375 -14.78125 44.203125 -14.78125 C 45.972656 -14.78125 47.503906 -15.015625 48.796875 -15.484375 C 50.097656 -15.953125 51.269531 -16.550781 52.3125 -17.28125 Z M 52.3125 -17.28125 "/></g></g></g><g fill="#272517" fill-opacity="1"><g transform="translate(324.164696, 147.806126)"><g><path d="M 51.21875 -74.40625 C 55.675781 -74.40625 59.460938 -73.679688 62.578125 -72.234375 L 57.59375 -55.265625 C 56.5625 -55.785156 55.265625 -56.222656 53.703125 -56.578125 C 52.148438 -56.941406 50.335938 -57.125 48.265625 -57.125 C 44.835938 -57.125 41.515625 -56.269531 38.296875 -54.5625 C 35.078125 -52.851562 32.429688 -50.15625 30.359375 -46.46875 C 28.285156 -42.78125 27.25 -38.03125 27.25 -32.21875 L 27.09375 -33.625 L 27.09375 0 L 8.40625 1.5625 L 8.40625 -72.859375 L 25.84375 -74.40625 L 25.84375 -60.09375 C 28.539062 -64.757812 32.171875 -68.3125 36.734375 -70.75 C 41.304688 -73.1875 46.132812 -74.40625 51.21875 -74.40625 Z M 51.21875 -74.40625 "/></g></g></g><g fill="#272517" fill-opacity="1"><g transform="translate(384.407305, 147.806126)"><g><path d="M 83.125 -36.421875 C 83.125 -35.703125 83.125 -34.796875 83.125 -33.703125 C 83.125 -32.609375 83.019531 -31.703125 82.8125 -30.984375 L 23.96875 -30.984375 C 24.28125 -27.867188 25.445312 -24.859375 27.46875 -21.953125 C 29.5 -19.046875 32.25 -16.679688 35.71875 -14.859375 C 39.195312 -13.046875 43.222656 -12.140625 47.796875 -12.140625 C 52.878906 -12.140625 57.234375 -12.890625 60.859375 -14.390625 C 64.492188 -15.898438 67.660156 -17.691406 70.359375 -19.765625 L 79.078125 -7.78125 C 75.140625 -4.664062 70.46875 -2.203125 65.0625 -0.390625 C 59.664062 1.421875 53.441406 2.328125 46.390625 2.328125 C 37.359375 2.328125 29.703125 0.460938 23.421875 -3.265625 C 17.148438 -7.003906 12.378906 -11.832031 9.109375 -17.75 C 5.835938 -23.664062 4.203125 -29.890625 4.203125 -36.421875 C 4.203125 -43.796875 5.914062 -50.414062 9.34375 -56.28125 C 12.769531 -62.144531 17.488281 -66.757812 23.5 -70.125 C 29.519531 -73.5 36.375 -75.1875 44.0625 -75.1875 C 51.632812 -75.1875 58.351562 -73.601562 64.21875 -70.4375 C 70.082031 -67.269531 74.695312 -62.804688 78.0625 -57.046875 C 81.4375 -51.285156 83.125 -44.410156 83.125 -36.421875 Z M 44.203125 -60.875 C 39.535156 -60.875 35.226562 -59.34375 31.28125 -56.28125 C 27.34375 -53.21875 24.957031 -48.882812 24.125 -43.28125 L 64.140625 -43.28125 C 64.035156 -48.050781 62.21875 -52.175781 58.6875 -55.65625 C 55.15625 -59.132812 50.328125 -60.875 44.203125 -60.875 Z M 44.203125 -60.875 "/></g></g></g><g fill="#272517" fill-opacity="1"><g transform="translate(466.59876, 147.806126)"><g><path d="M 48.71875 -97.609375 C 44.988281 -97.609375 42.03125 -96.335938 39.84375 -93.796875 C 37.664062 -91.253906 36.578125 -87.695312 36.578125 -83.125 L 36.578125 -72.859375 L 55.109375 -72.859375 L 53.546875 -57.4375 L 36.578125 -57.4375 L 36.578125 0 L 17.75 1.5625 L 17.75 -57.4375 L 5.921875 -57.4375 L 7.46875 -72.859375 L 17.75 -72.859375 L 17.75 -80.640625 C 17.75 -86.867188 18.835938 -92.394531 21.015625 -97.21875 C 23.191406 -102.039062 26.457031 -105.851562 30.8125 -108.65625 C 35.175781 -111.457031 40.628906 -112.859375 47.171875 -112.859375 C 51.210938 -112.859375 54.789062 -112.363281 57.90625 -111.375 C 61.019531 -110.394531 63.664062 -109.070312 65.84375 -107.40625 L 59.46875 -94.34375 C 58.21875 -95.269531 56.710938 -96.046875 54.953125 -96.671875 C 53.191406 -97.296875 51.113281 -97.609375 48.71875 -97.609375 Z M 48.71875 -97.609375 "/></g></g></g></g></g><g clip-path="url(#cb00ed58eb)"><g transform="matrix(1, 0, 0, 1, 0, -0.000000000000025632)"><g clip-path="url(#9a39817067)"><g clip-path="url(#224bc1fee7)"><g clip-path="url(#13f70b3f9a)"><g transform="matrix(1, 0, 0, 1, 0, -0.000000000000025632)"><g clip-path="url(#1ae820f38f)"><g clip-path="url(#21ea60bc3f)"><g clip-path="url(#2e689bcc28)"><path fill="#272517" d="M 0 0.015625 L 224.96875 0.015625 L 224.96875 224.984375 L 0 224.984375 Z M 0 0.015625 " fill-opacity="1" fill-rule="nonzero"/></g></g></g></g></g></g><g clip-path="url(#67bf561d0b)"><g clip-path="url(#893cf04ea3)"><path fill="#f2f2f2" d="M 145.964844 173.144531 C 135.835938 178.890625 124.125 182.167969 111.648438 182.167969 C 75.480469 182.167969 45.746094 154.605469 42.3125 119.335938 C 76.675781 168.085938 106.320312 130.25 135.40625 126.835938 C 157.613281 124.226562 169.835938 158.921875 145.964844 173.144531 Z M 145.964844 173.144531 " fill-opacity="1" fill-rule="nonzero"/></g></g><g clip-path="url(#e5bce04ab6)"><g clip-path="url(#d7ef0d651e)"><path fill="#f2f2f2" d="M 147.527344 97.804688 C 129.472656 97.101562 123.859375 106.28125 108.628906 114.4375 C 108.621094 114.441406 108.617188 114.441406 108.613281 114.445312 C 83.851562 129.683594 51.269531 130.289062 44.726562 93.074219 C 43.066406 98.796875 42.132812 104.824219 42.007812 111.046875 L 46.011719 116.730469 C 56.96875 132.277344 67.820312 139.519531 80.160156 139.523438 C 80.160156 139.523438 80.164062 139.523438 80.164062 139.523438 C 89.757812 139.523438 99.582031 135.15625 109.082031 130.9375 C 117.449219 127.21875 126.105469 123.371094 134.878906 122.34375 C 135.839844 122.230469 136.808594 122.171875 137.761719 122.171875 C 149.109375 122.171875 158.996094 130.386719 162.363281 142.617188 C 164.15625 149.117188 163.816406 155.597656 161.632812 161.394531 C 167.074219 156.007812 171.554688 149.722656 174.496094 142.605469 C 182.949219 122.144531 166.199219 98.527344 147.527344 97.804688 Z M 147.527344 97.804688 " fill-opacity="1" fill-rule="nonzero"/></g></g><g clip-path="url(#cb34ff1287)"><g clip-path="url(#1c1b46758b)"><path fill="#f2f2f2" d="M 49.183594 92.289062 C 52.335938 110.222656 62.160156 119.703125 77.597656 119.703125 C 78.621094 119.703125 79.660156 119.65625 80.710938 119.570312 C 72.375 115.835938 70.167969 105.207031 75.511719 93.566406 C 86.347656 69.964844 117.683594 73.460938 128.886719 68.773438 C 146.210938 61.53125 140.035156 47.492188 125.089844 44.125 C 125.085938 44.125 125.082031 44.121094 125.078125 44.121094 C 123.96875 43.90625 122.84375 43.714844 121.71875 43.554688 C 121.679688 43.546875 121.644531 43.542969 121.609375 43.539062 C 118.351562 43.070312 115.03125 42.832031 111.648438 42.832031 C 83.113281 42.832031 58.589844 59.988281 47.820312 84.546875 Z M 49.183594 92.289062 " fill-opacity="1" fill-rule="nonzero"/></g></g></g></g></g></svg>