<svg xmlns="http://www.w3.org/2000/svg" xmlns:xlink="http://www.w3.org/1999/xlink" width="1100" zoomAndPan="magnify" viewBox="0 0 824.88 225" height="300" preserveAspectRatio="xMidYMid meet" version="1.0"><defs><g/><clipPath id="9630749e2f"><rect x="0" width="534" y="0" height="187"/></clipPath><clipPath id="206a5df143"><path d="M 0 1.214844 L 221.25 1.214844 L 221.25 224 L 0 224 Z M 0 1.214844 " clip-rule="nonzero"/></clipPath><clipPath id="ccb7271a3e"><path d="M 44.992188 1.214844 L 176.253906 1.214844 C 188.1875 1.214844 199.632812 5.957031 208.070312 14.394531 C 216.507812 22.832031 221.25 34.277344 221.25 46.210938 L 221.25 178.789062 C 221.25 190.722656 216.507812 202.167969 208.070312 210.605469 C 199.632812 219.042969 188.1875 223.785156 176.253906 223.785156 L 44.992188 223.785156 C 33.058594 223.785156 21.617188 219.042969 13.179688 210.605469 C 4.742188 202.167969 0 190.722656 0 178.789062 L 0 46.210938 C 0 34.277344 4.742188 22.832031 13.179688 14.394531 C 21.617188 5.957031 33.058594 1.214844 44.992188 1.214844 Z M 44.992188 1.214844 " clip-rule="nonzero"/></clipPath><clipPath id="c117ff7395"><path d="M 0 0.214844 L 221.25 0.214844 L 221.25 222.902344 L 0 222.902344 Z M 0 0.214844 " clip-rule="nonzero"/></clipPath><clipPath id="a38d6dcf3c"><path d="M 44.992188 0.214844 L 176.253906 0.214844 C 188.1875 0.214844 199.632812 4.957031 208.070312 13.394531 C 216.507812 21.832031 221.25 33.277344 221.25 45.210938 L 221.25 177.789062 C 221.25 189.722656 216.507812 201.167969 208.070312 209.605469 C 199.632812 218.042969 188.1875 222.785156 176.253906 222.785156 L 44.992188 222.785156 C 33.058594 222.785156 21.617188 218.042969 13.179688 209.605469 C 4.742188 201.167969 0 189.722656 0 177.789062 L 0 45.210938 C 0 33.277344 4.742188 21.832031 13.179688 13.394531 C 21.617188 4.957031 33.058594 0.214844 44.992188 0.214844 Z M 44.992188 0.214844 " clip-rule="nonzero"/></clipPath><clipPath id="b2934b77eb"><rect x="0" width="222" y="0" height="223"/></clipPath><clipPath id="8d2a53cec0"><path d="M 37.589844 119 L 159 119 L 159 184.488281 L 37.589844 184.488281 Z M 37.589844 119 " clip-rule="nonzero"/></clipPath><clipPath id="7f03c17f4d"><path d="M 37.589844 52.507812 L 37.589844 171.433594 C 37.589844 178.472656 43.300781 184.179688 50.339844 184.179688 L 170.910156 184.179688 C 177.949219 184.179688 183.65625 178.472656 183.65625 171.433594 L 183.65625 52.507812 C 183.65625 45.464844 177.949219 39.757812 170.910156 39.757812 L 50.339844 39.757812 C 43.300781 39.757812 37.589844 45.464844 37.589844 52.507812 Z M 37.589844 52.507812 " clip-rule="nonzero"/></clipPath><clipPath id="7422cf0a3b"><path d="M 37.589844 91 L 178 91 L 178 163 L 37.589844 163 Z M 37.589844 91 " clip-rule="nonzero"/></clipPath><clipPath id="7114be7b07"><path d="M 37.589844 52.507812 L 37.589844 171.433594 C 37.589844 178.472656 43.300781 184.179688 50.339844 184.179688 L 170.910156 184.179688 C 177.949219 184.179688 183.65625 178.472656 183.65625 171.433594 L 183.65625 52.507812 C 183.65625 45.464844 177.949219 39.757812 170.910156 39.757812 L 50.339844 39.757812 C 43.300781 39.757812 37.589844 45.464844 37.589844 52.507812 Z M 37.589844 52.507812 " clip-rule="nonzero"/></clipPath><clipPath id="51725be8f0"><path d="M 43 39.757812 L 139 39.757812 L 139 120 L 43 120 Z M 43 39.757812 " clip-rule="nonzero"/></clipPath><clipPath id="f20192ddcc"><path d="M 37.589844 52.507812 L 37.589844 171.433594 C 37.589844 178.472656 43.300781 184.179688 50.339844 184.179688 L 170.910156 184.179688 C 177.949219 184.179688 183.65625 178.472656 183.65625 171.433594 L 183.65625 52.507812 C 183.65625 45.464844 177.949219 39.757812 170.910156 39.757812 L 50.339844 39.757812 C 43.300781 39.757812 37.589844 45.464844 37.589844 52.507812 Z M 37.589844 52.507812 " clip-rule="nonzero"/></clipPath></defs><g transform="matrix(1, 0, 0, 1, 274, 16)"><g clip-path="url(#9630749e2f)"><g fill="#f2f2f2" fill-opacity="1"><g transform="translate(1.157433, 147.806126)"><g><path d="M 46.234375 2.328125 C 37.722656 2.328125 30.328125 0.539062 24.046875 -3.03125 C 17.773438 -6.613281 12.898438 -11.363281 9.421875 -17.28125 C 5.941406 -23.195312 4.203125 -29.628906 4.203125 -36.578125 C 4.203125 -44.160156 6.117188 -50.851562 9.953125 -56.65625 C 13.796875 -62.46875 18.910156 -67.007812 25.296875 -70.28125 C 31.679688 -73.550781 38.609375 -75.1875 46.078125 -75.1875 C 56.035156 -75.1875 64.492188 -72.800781 71.453125 -68.03125 L 63.359375 -54.953125 C 61.703125 -56.296875 59.394531 -57.460938 56.4375 -58.453125 C 53.476562 -59.441406 50.335938 -59.9375 47.015625 -59.9375 C 42.648438 -59.9375 38.675781 -58.945312 35.09375 -56.96875 C 31.519531 -55 28.664062 -52.273438 26.53125 -48.796875 C 24.40625 -45.328125 23.34375 -41.304688 23.34375 -36.734375 C 23.34375 -32.273438 24.378906 -28.226562 26.453125 -24.59375 C 28.535156 -20.957031 31.390625 -18.101562 35.015625 -16.03125 C 38.648438 -13.957031 42.753906 -12.921875 47.328125 -12.921875 C 50.648438 -12.921875 53.941406 -13.460938 57.203125 -14.546875 C 60.472656 -15.640625 63.25 -16.96875 65.53125 -18.53125 L 72.390625 -5.453125 C 65.429688 -0.265625 56.710938 2.328125 46.234375 2.328125 Z M 46.234375 2.328125 "/></g></g></g><g fill="#f2f2f2" fill-opacity="1"><g transform="translate(76.811181, 147.806126)"><g><path d="M 75.8125 -64.453125 C 79.03125 -61.023438 81.234375 -57 82.421875 -52.375 C 83.617188 -47.757812 84.21875 -42.859375 84.21875 -37.671875 L 84.21875 0 L 65.375 1.5625 L 65.375 -32.6875 C 65.375 -36.320312 65.140625 -39.800781 64.671875 -43.125 C 64.210938 -46.445312 63.046875 -49.351562 61.171875 -51.84375 C 59.515625 -54.125 57.570312 -55.859375 55.34375 -57.046875 C 53.113281 -58.242188 50.335938 -58.84375 47.015625 -58.84375 C 43.484375 -58.84375 40.289062 -57.78125 37.4375 -55.65625 C 34.582031 -53.53125 32.320312 -50.648438 30.65625 -47.015625 C 29 -43.378906 28.171875 -39.226562 28.171875 -34.5625 L 28.171875 0 L 9.34375 1.5625 L 9.34375 -110.53125 L 27.546875 -112.078125 L 27.546875 -62.109375 C 30.554688 -66.367188 34.210938 -69.535156 38.515625 -71.609375 C 42.828125 -73.679688 47.476562 -74.71875 52.46875 -74.71875 C 57.65625 -74.71875 62.191406 -73.734375 66.078125 -71.765625 C 69.972656 -69.796875 73.21875 -67.359375 75.8125 -64.453125 Z M 75.8125 -64.453125 "/></g></g></g><g fill="#f2f2f2" fill-opacity="1"><g transform="translate(169.276866, 147.806126)"><g><path d="M 68.34375 -72.859375 L 86.09375 -74.40625 L 86.09375 0 L 68.34375 1.5625 L 68.34375 -9.5 C 65.4375 -5.96875 61.722656 -3.1875 57.203125 -1.15625 C 52.691406 0.863281 47.582031 1.875 41.875 1.875 C 37.207031 1.875 32.640625 0.992188 28.171875 -0.765625 C 23.710938 -2.535156 19.664062 -5.082031 16.03125 -8.40625 C 12.394531 -11.726562 9.515625 -15.773438 7.390625 -20.546875 C 5.265625 -25.316406 4.203125 -30.660156 4.203125 -36.578125 C 4.203125 -42.492188 5.316406 -47.8125 7.546875 -52.53125 C 9.773438 -57.257812 12.734375 -61.253906 16.421875 -64.515625 C 20.109375 -67.785156 24.15625 -70.300781 28.5625 -72.0625 C 32.976562 -73.832031 37.3125 -74.71875 41.5625 -74.71875 C 47.375 -74.71875 52.5625 -73.65625 57.125 -71.53125 C 61.695312 -69.40625 65.4375 -66.578125 68.34375 -63.046875 Z M 45.609375 -13.078125 C 49.660156 -13.078125 53.34375 -14.085938 56.65625 -16.109375 C 59.976562 -18.128906 62.625 -20.90625 64.59375 -24.4375 C 66.570312 -27.96875 67.5625 -32.066406 67.5625 -36.734375 C 67.5625 -41.304688 66.570312 -45.351562 64.59375 -48.875 C 62.625 -52.40625 59.976562 -55.207031 56.65625 -57.28125 C 53.34375 -59.363281 49.609375 -60.40625 45.453125 -60.40625 C 41.410156 -60.40625 37.675781 -59.390625 34.25 -57.359375 C 30.820312 -55.335938 28.097656 -52.535156 26.078125 -48.953125 C 24.054688 -45.378906 23.046875 -41.304688 23.046875 -36.734375 C 23.046875 -32.171875 24.082031 -28.097656 26.15625 -24.515625 C 28.226562 -20.929688 30.976562 -18.128906 34.40625 -16.109375 C 37.832031 -14.085938 41.566406 -13.078125 45.609375 -13.078125 Z M 45.609375 -13.078125 "/></g></g></g><g fill="#f2f2f2" fill-opacity="1"><g transform="translate(263.766215, 147.806126)"><g><path d="M 52.3125 -17.28125 L 57.4375 -2.953125 C 55.15625 -1.609375 52.664062 -0.570312 49.96875 0.15625 C 47.269531 0.882812 44.101562 1.25 40.46875 1.25 C 34.039062 1.25 28.984375 -0.0703125 25.296875 -2.71875 C 21.609375 -5.363281 19.007812 -8.734375 17.5 -12.828125 C 16 -16.929688 15.25 -21.21875 15.25 -25.6875 L 15.25 -57.4375 L 2.953125 -57.4375 L 4.515625 -72.859375 L 15.25 -72.859375 L 15.25 -92.625 L 34.09375 -95.578125 L 34.09375 -72.859375 L 55.265625 -72.859375 L 53.703125 -57.4375 L 34.09375 -57.4375 L 34.09375 -28.015625 C 34.09375 -23.140625 35.128906 -19.710938 37.203125 -17.734375 C 39.273438 -15.765625 41.609375 -14.78125 44.203125 -14.78125 C 45.972656 -14.78125 47.503906 -15.015625 48.796875 -15.484375 C 50.097656 -15.953125 51.269531 -16.550781 52.3125 -17.28125 Z M 52.3125 -17.28125 "/></g></g></g><g fill="#f2f2f2" fill-opacity="1"><g transform="translate(324.164696, 147.806126)"><g><path d="M 51.21875 -74.40625 C 55.675781 -74.40625 59.460938 -73.679688 62.578125 -72.234375 L 57.59375 -55.265625 C 56.5625 -55.785156 55.265625 -56.222656 53.703125 -56.578125 C 52.148438 -56.941406 50.335938 -57.125 48.265625 -57.125 C 44.835938 -57.125 41.515625 -56.269531 38.296875 -54.5625 C 35.078125 -52.851562 32.429688 -50.15625 30.359375 -46.46875 C 28.285156 -42.78125 27.25 -38.03125 27.25 -32.21875 L 27.09375 -33.625 L 27.09375 0 L 8.40625 1.5625 L 8.40625 -72.859375 L 25.84375 -74.40625 L 25.84375 -60.09375 C 28.539062 -64.757812 32.171875 -68.3125 36.734375 -70.75 C 41.304688 -73.1875 46.132812 -74.40625 51.21875 -74.40625 Z M 51.21875 -74.40625 "/></g></g></g><g fill="#f2f2f2" fill-opacity="1"><g transform="translate(384.407305, 147.806126)"><g><path d="M 83.125 -36.421875 C 83.125 -35.703125 83.125 -34.796875 83.125 -33.703125 C 83.125 -32.609375 83.019531 -31.703125 82.8125 -30.984375 L 23.96875 -30.984375 C 24.28125 -27.867188 25.445312 -24.859375 27.46875 -21.953125 C 29.5 -19.046875 32.25 -16.679688 35.71875 -14.859375 C 39.195312 -13.046875 43.222656 -12.140625 47.796875 -12.140625 C 52.878906 -12.140625 57.234375 -12.890625 60.859375 -14.390625 C 64.492188 -15.898438 67.660156 -17.691406 70.359375 -19.765625 L 79.078125 -7.78125 C 75.140625 -4.664062 70.46875 -2.203125 65.0625 -0.390625 C 59.664062 1.421875 53.441406 2.328125 46.390625 2.328125 C 37.359375 2.328125 29.703125 0.460938 23.421875 -3.265625 C 17.148438 -7.003906 12.378906 -11.832031 9.109375 -17.75 C 5.835938 -23.664062 4.203125 -29.890625 4.203125 -36.421875 C 4.203125 -43.796875 5.914062 -50.414062 9.34375 -56.28125 C 12.769531 -62.144531 17.488281 -66.757812 23.5 -70.125 C 29.519531 -73.5 36.375 -75.1875 44.0625 -75.1875 C 51.632812 -75.1875 58.351562 -73.601562 64.21875 -70.4375 C 70.082031 -67.269531 74.695312 -62.804688 78.0625 -57.046875 C 81.4375 -51.285156 83.125 -44.410156 83.125 -36.421875 Z M 44.203125 -60.875 C 39.535156 -60.875 35.226562 -59.34375 31.28125 -56.28125 C 27.34375 -53.21875 24.957031 -48.882812 24.125 -43.28125 L 64.140625 -43.28125 C 64.035156 -48.050781 62.21875 -52.175781 58.6875 -55.65625 C 55.15625 -59.132812 50.328125 -60.875 44.203125 -60.875 Z M 44.203125 -60.875 "/></g></g></g><g fill="#f2f2f2" fill-opacity="1"><g transform="translate(466.59876, 147.806126)"><g><path d="M 48.71875 -97.609375 C 44.988281 -97.609375 42.03125 -96.335938 39.84375 -93.796875 C 37.664062 -91.253906 36.578125 -87.695312 36.578125 -83.125 L 36.578125 -72.859375 L 55.109375 -72.859375 L 53.546875 -57.4375 L 36.578125 -57.4375 L 36.578125 0 L 17.75 1.5625 L 17.75 -57.4375 L 5.921875 -57.4375 L 7.46875 -72.859375 L 17.75 -72.859375 L 17.75 -80.640625 C 17.75 -86.867188 18.835938 -92.394531 21.015625 -97.21875 C 23.191406 -102.039062 26.457031 -105.851562 30.8125 -108.65625 C 35.175781 -111.457031 40.628906 -112.859375 47.171875 -112.859375 C 51.210938 -112.859375 54.789062 -112.363281 57.90625 -111.375 C 61.019531 -110.394531 63.664062 -109.070312 65.84375 -107.40625 L 59.46875 -94.34375 C 58.21875 -95.269531 56.710938 -96.046875 54.953125 -96.671875 C 53.191406 -97.296875 51.113281 -97.609375 48.71875 -97.609375 Z M 48.71875 -97.609375 "/></g></g></g></g></g><g clip-path="url(#206a5df143)"><g clip-path="url(#ccb7271a3e)"><g transform="matrix(1, 0, 0, 1, 0, 1)"><g clip-path="url(#b2934b77eb)"><g clip-path="url(#c117ff7395)"><g clip-path="url(#a38d6dcf3c)"><path fill="#ffffff" d="M 0 0.214844 L 221.25 0.214844 L 221.25 223.191406 L 0 223.191406 Z M 0 0.214844 " fill-opacity="1" fill-rule="nonzero"/></g></g></g></g></g></g><g clip-path="url(#8d2a53cec0)"><g clip-path="url(#7f03c17f4d)"><path fill="#272517" d="M 145.316406 174.808594 C 134.824219 180.761719 122.6875 184.160156 109.757812 184.160156 C 72.28125 184.160156 41.46875 155.597656 37.910156 119.046875 C 73.519531 169.566406 104.238281 130.359375 134.375 126.820312 C 157.386719 124.113281 170.054688 160.066406 145.316406 174.808594 Z M 145.316406 174.808594 " fill-opacity="1" fill-rule="nonzero"/></g></g><g clip-path="url(#7422cf0a3b)"><g clip-path="url(#7114be7b07)"><path fill="#272517" d="M 146.9375 96.738281 C 128.226562 96.007812 122.414062 105.519531 106.628906 113.972656 C 106.621094 113.976562 106.617188 113.976562 106.613281 113.980469 C 80.957031 129.773438 47.191406 130.402344 40.410156 91.835938 C 38.6875 97.765625 37.722656 104.011719 37.589844 110.460938 L 41.742188 116.347656 C 53.097656 132.460938 64.339844 139.964844 77.128906 139.96875 C 77.128906 139.96875 77.132812 139.96875 77.132812 139.96875 C 87.074219 139.96875 97.253906 135.445312 107.097656 131.070312 C 115.769531 127.214844 124.738281 123.230469 133.832031 122.164062 C 134.828125 122.046875 135.832031 121.988281 136.820312 121.988281 C 148.578125 121.988281 158.824219 130.5 162.3125 143.175781 C 164.167969 149.910156 163.816406 156.625 161.554688 162.632812 C 167.195312 157.050781 171.835938 150.535156 174.882812 143.164062 C 183.644531 121.957031 166.285156 97.488281 146.9375 96.738281 Z M 146.9375 96.738281 " fill-opacity="1" fill-rule="nonzero"/></g></g><g clip-path="url(#51725be8f0)"><g clip-path="url(#f20192ddcc)"><path fill="#272517" d="M 45.027344 91.023438 C 48.292969 109.605469 58.476562 119.429688 74.476562 119.429688 C 75.53125 119.429688 76.609375 119.378906 77.699219 119.292969 C 69.058594 115.421875 66.773438 104.40625 72.3125 92.34375 C 83.539062 67.886719 116.011719 71.507812 127.621094 66.652344 C 145.574219 59.148438 139.175781 44.597656 123.6875 41.113281 C 123.683594 41.113281 123.679688 41.109375 123.675781 41.109375 C 122.523438 40.882812 121.363281 40.6875 120.195312 40.519531 C 120.15625 40.515625 120.117188 40.507812 120.078125 40.503906 C 116.707031 40.019531 113.261719 39.769531 109.757812 39.769531 C 80.191406 39.769531 54.777344 57.550781 43.617188 83 Z M 45.027344 91.023438 " fill-opacity="1" fill-rule="nonzero"/></g></g></svg>